<svg version="1.1" xmlns="http://www.w3.org/2000/svg" viewBox="0 0 1240.1184170415286 486.66435403358366" width="1240.1184170415286" height="486.66435403358366" filter="invert(93%) hue-rotate(180deg)">
  <!-- svg-source:excalidraw -->
  
  <defs>
    <style class="style-fonts">
      @font-face {
        font-family: "Virgil";
        src: url("https://excalidraw.com/Virgil.woff2");
      }
      @font-face {
        font-family: "Cascadia";
        src: url("https://excalidraw.com/Cascadia.woff2");
      }
    </style>
    
  </defs>
  <rect x="0" y="0" width="1240.1184170415286" height="486.66435403358366" fill="#ffffff"></rect><g stroke-linecap="round" transform="translate(240.96836454667329 177.9355492637776) rotate(0 66.24286221713669 72.26493407426187)"><path d="M60.3 0.31 C69.04 -1.32, 80.36 1.98, 89.42 5.91 C98.48 9.84, 108.01 16.32, 114.65 23.89 C121.29 31.45, 126.46 41.35, 129.25 51.29 C132.03 61.23, 132.59 73.3, 131.35 83.53 C130.1 93.76, 127.26 104.11, 121.79 112.67 C116.32 121.23, 106.92 129.51, 98.53 134.89 C90.14 140.26, 80.9 144.21, 71.46 144.9 C62.01 145.58, 50.67 143.03, 41.86 139 C33.05 134.97, 25.04 128.08, 18.6 120.71 C12.16 113.33, 6.27 104.59, 3.23 94.74 C0.18 84.88, -1 71.94, 0.34 61.57 C1.67 51.2, 5.77 41.16, 11.25 32.53 C16.72 23.9, 24.14 15.35, 33.19 9.8 C42.25 4.24, 59.73 0.48, 65.58 -0.8 C71.43 -2.07, 68.35 0.85, 68.28 2.16 M55.91 -0.33 C64.61 -3.4, 74.7 -1.7, 83.6 1.23 C92.5 4.17, 101.91 9.91, 109.31 17.27 C116.71 24.63, 124.19 35.67, 128 45.37 C131.8 55.07, 132.93 65.32, 132.15 75.47 C131.37 85.62, 128.07 97.12, 123.3 106.28 C118.53 115.44, 111.25 124.46, 103.55 130.44 C95.84 136.43, 86.55 140.07, 77.08 142.2 C67.61 144.34, 55.61 146.01, 46.72 143.24 C37.83 140.47, 30.52 132.71, 23.71 125.58 C16.9 118.46, 9.92 110.05, 5.86 100.5 C1.81 90.94, -1.22 78.83, -0.61 68.26 C0 57.69, 4.9 46.24, 9.54 37.08 C14.18 27.92, 19.88 19.13, 27.24 13.29 C34.61 7.44, 48.96 3.65, 53.76 2.01 C58.55 0.37, 55.49 2.38, 56.02 3.46" stroke="#1971c2" stroke-width="1" fill="none"></path></g><g stroke-linecap="round" transform="translate(546.3840430344342 74.92429521681908) rotate(0 170.500083542599 39.143495786817624)"><path d="M19.57 0 M19.57 0 C91.42 -1.09, 162.5 -1.9, 321.43 0 M19.57 0 C118.46 0.82, 217.51 0.8, 321.43 0 M321.43 0 C336.25 0.43, 339.88 4.59, 341 19.57 M321.43 0 C333.23 -0.61, 340.79 7.91, 341 19.57 M341 19.57 C341.97 31.6, 340.62 41.53, 341 58.72 M341 19.57 C341.42 27.94, 341.64 37.51, 341 58.72 M341 58.72 C342.96 71.01, 333.42 79.52, 321.43 78.29 M341 58.72 C341.76 71.07, 336.27 79.58, 321.43 78.29 M321.43 78.29 C248.36 77.35, 176.72 77.62, 19.57 78.29 M321.43 78.29 C210.06 79.82, 98.64 80.55, 19.57 78.29 M19.57 78.29 C6.68 80.03, -1.66 71.72, 0 58.72 M19.57 78.29 C8.41 78.23, 2.29 74.03, 0 58.72 M0 58.72 C-1.41 50.97, 0.41 41.8, 0 19.57 M0 58.72 C1.04 51.65, 0.07 43.5, 0 19.57 M0 19.57 C0.27 6.64, 5.61 -1.08, 19.57 0 M0 19.57 C-1.95 5.34, 4.55 1.68, 19.57 0" stroke="#1971c2" stroke-width="1" fill="none"></path></g><g stroke-linecap="round" transform="translate(560.4704606721524 322.704767206117) rotate(0 170.87645764951236 46.67110714485193)"><path d="M23.34 0 M23.34 0 C83.98 -1.9, 143.01 -1.23, 318.42 0 M23.34 0 C112.98 0.8, 203.24 1.73, 318.42 0 M318.42 0 C335.65 -1.71, 341.62 8.44, 341.75 23.34 M318.42 0 C335.61 1.89, 340.04 8.59, 341.75 23.34 M341.75 23.34 C341.86 33.99, 342.71 49.05, 341.75 70.01 M341.75 23.34 C340.75 36.79, 341.73 50.25, 341.75 70.01 M341.75 70.01 C343.55 83.71, 332.98 93.71, 318.42 93.34 M341.75 70.01 C339.88 83.64, 334.74 92.48, 318.42 93.34 M318.42 93.34 C236.42 94.21, 154.7 95.34, 23.34 93.34 M318.42 93.34 C201.5 91.16, 84.96 91.59, 23.34 93.34 M23.34 93.34 C7.42 91.81, 1.61 87.47, 0 70.01 M23.34 93.34 C9.84 93.01, 0.6 84.33, 0 70.01 M0 70.01 C-1.39 50.64, -1.36 34.54, 0 23.34 M0 70.01 C0.63 51.45, -0.91 32.57, 0 23.34 M0 23.34 C1.51 6.82, 7.4 -1.02, 23.34 0 M0 23.34 C-0.41 7.9, 5.86 -0.76, 23.34 0" stroke="#1971c2" stroke-width="1" fill="none"></path></g><g stroke-linecap="round" transform="translate(1064.486635222327 52.32378268187182) rotate(0 60.97352421608639 58.71525803797829)"><path d="M76.25 14.75 M76.25 14.75 C88.39 25.09, 97.39 34.78, 106.7 44.25 M76.25 14.75 C84.64 21.94, 91.61 29.1, 106.7 44.25 M106.7 44.25 C121.05 58.8, 122.82 57.16, 106.7 73.75 M106.7 44.25 C123.88 59.64, 123.75 58.38, 106.7 73.75 M106.7 73.75 C97.25 84.75, 86.3 93.86, 76.25 102.68 M106.7 73.75 C95.39 83.96, 83.42 95.09, 76.25 102.68 M76.25 102.68 C62.32 118.98, 61.49 119, 45.75 102.68 M76.25 102.68 C63.05 117.54, 61.66 115.83, 45.75 102.68 M45.75 102.68 C35.23 92.97, 23.33 81.82, 15.25 73.75 M45.75 102.68 C38.75 96.06, 32.82 90.09, 15.25 73.75 M15.25 73.75 C1.11 58.48, 1.84 60.99, 15.25 44.25 M15.25 73.75 C-0.8 59.82, -0.95 56.93, 15.25 44.25 M15.25 44.25 C22.65 38.47, 31.24 28.34, 45.75 14.75 M15.25 44.25 C26.25 34.48, 37.32 23.9, 45.75 14.75 M45.75 14.75 C60.23 -0.46, 61.11 -1.5, 76.25 14.75 M45.75 14.75 C58.91 1.54, 59.09 1.98, 76.25 14.75" stroke="#1971c2" stroke-width="1" fill="none"></path></g><g stroke-linecap="round" transform="translate(1052.6584622260893 355.470025099734) rotate(0 62.102732683337535 60.59716446692482)"><path d="M78.75 15.25 M78.75 15.25 C88.43 23.23, 98.17 33.34, 108.46 45.75 M78.75 15.25 C85.87 22.57, 94.35 32.25, 108.46 45.75 M108.46 45.75 C122.81 61.82, 124.34 59.66, 108.46 76.25 M108.46 45.75 C122.42 60.29, 122.48 62.34, 108.46 76.25 M108.46 76.25 C100.52 83.94, 95.74 89.85, 78.75 105.94 M108.46 76.25 C96.97 87.94, 84.9 99.4, 78.75 105.94 M78.75 105.94 C63.4 119.72, 63.5 120.41, 47.25 105.94 M78.75 105.94 C65.11 119.65, 61.28 122.42, 47.25 105.94 M47.25 105.94 C36.42 92.39, 22.41 83.97, 15.75 76.25 M47.25 105.94 C36.89 96.01, 25.63 85.43, 15.75 76.25 M15.75 76.25 C-1.32 61.68, -1.02 59.88, 15.75 45.75 M15.75 76.25 C1.86 59.64, 2.14 60.6, 15.75 45.75 M15.75 45.75 C23.82 37.84, 29.53 32.55, 47.25 15.25 M15.75 45.75 C21.45 38.69, 29.51 33.22, 47.25 15.25 M47.25 15.25 C63.15 1.62, 61.6 -0.36, 78.75 15.25 M47.25 15.25 C62.75 2.02, 60.96 1.22, 78.75 15.25" stroke="#1971c2" stroke-width="1" fill="none"></path></g><g transform="translate(1039.4997930216832 10) rotate(0 91.05992126464844 12.5)"><text x="0" y="0" font-family="Virgil, Segoe UI Emoji" font-size="20px" fill="#f08c00" text-anchor="start" style="white-space: pre;" direction="ltr" dominant-baseline="text-before-edge">analytics consumer</text></g><g transform="translate(1047.5585873296145 312.7084368668287) rotate(0 91.27991485595703 25)"><text x="0" y="0" font-family="Virgil, Segoe UI Emoji" font-size="20px" fill="#f08c00" text-anchor="start" style="white-space: pre;" direction="ltr" dominant-baseline="text-before-edge">payments consumer</text><text x="0" y="25" font-family="Virgil, Segoe UI Emoji" font-size="20px" fill="#f08c00" text-anchor="start" style="white-space: pre;" direction="ltr" dominant-baseline="text-before-edge"></text></g><g transform="translate(39.451981461435935 238.97999389654672) rotate(0 40.929954528808594 25)"><text x="0" y="0" font-family="Virgil, Segoe UI Emoji" font-size="20px" fill="#e03131" text-anchor="start" style="white-space: pre;" direction="ltr" dominant-baseline="text-before-edge">producer</text><text x="0" y="25" font-family="Virgil, Segoe UI Emoji" font-size="20px" fill="#e03131" text-anchor="start" style="white-space: pre;" direction="ltr" dominant-baseline="text-before-edge"></text></g><g stroke-linecap="round"><g transform="translate(365.2969898679818 202.61858596522575) rotate(0 83.24997576331717 -44.485367610802484)"><path d="M0.3 1.13 C28.3 -13.85, 139.66 -74.82, 167.5 -90.1 M-1 0.67 C26.88 -14.13, 138.61 -73.78, 166.53 -88.85" stroke="#1971c2" stroke-width="1" fill="none"></path></g><g transform="translate(365.2969898679818 202.61858596522575) rotate(0 83.24997576331717 -44.485367610802484)"><path d="M148.42 -66.55 C150.8 -72.58, 155.19 -79.79, 167.54 -88.11 M147.11 -66.74 C152.93 -74.83, 161.27 -82.95, 165.89 -88.8" stroke="#1971c2" stroke-width="1" fill="none"></path></g><g transform="translate(365.2969898679818 202.61858596522575) rotate(0 83.24997576331717 -44.485367610802484)"><path d="M138.72 -84.63 C143.57 -86.03, 150.45 -88.58, 167.54 -88.11 M137.41 -84.82 C146.73 -86.25, 158.61 -87.77, 165.89 -88.8" stroke="#1971c2" stroke-width="1" fill="none"></path></g></g><mask></mask><g stroke-linecap="round"><g transform="translate(371.0341995859744 301.0643924988598) rotate(0 86.45124579062863 40.349049351788835)"><path d="M0.18 -0.1 C28.69 13.44, 143.18 67.31, 171.9 80.71 M-1.19 -1.2 C27.62 12.54, 145.31 68.18, 174.09 81.89" stroke="#1971c2" stroke-width="1" fill="none"></path></g><g transform="translate(371.0341995859744 301.0643924988598) rotate(0 86.45124579062863 40.349049351788835)"><path d="M144.06 77.45 C154.1 79.43, 164.45 81.48, 174.61 82.24 M143.44 79.92 C152.34 79.44, 160.95 80.17, 173.91 81.77" stroke="#1971c2" stroke-width="1" fill="none"></path></g><g transform="translate(371.0341995859744 301.0643924988598) rotate(0 86.45124579062863 40.349049351788835)"><path d="M152.86 58.91 C159.57 67.74, 166.68 76.63, 174.61 82.24 M152.23 61.38 C158.49 66.23, 164.6 72.22, 173.91 81.77" stroke="#1971c2" stroke-width="1" fill="none"></path></g></g><mask></mask><g stroke-linecap="round"><g transform="translate(903.192152334024 116.79216176419072) rotate(0 84.50386195239179 -8.820362292698974)"><path d="M-1.09 0.14 C27.43 -2.74, 141.52 -14.86, 170.1 -17.78 M0.53 -0.83 C28.96 -3.48, 140.8 -13.83, 168.98 -16.36" stroke="#1971c2" stroke-width="1" fill="none"></path></g><g transform="translate(903.192152334024 116.79216176419072) rotate(0 84.50386195239179 -8.820362292698974)"><path d="M142.07 -4.12 C147.36 -6.13, 153.83 -8.42, 170.52 -15.19 M141.83 -2.77 C150.35 -7.85, 158.05 -10.01, 168.84 -16.21" stroke="#1971c2" stroke-width="1" fill="none"></path></g><g transform="translate(903.192152334024 116.79216176419072) rotate(0 84.50386195239179 -8.820362292698974)"><path d="M140.21 -24.55 C145.81 -22.16, 152.69 -20.05, 170.52 -15.19 M139.96 -23.2 C149.09 -22.38, 157.32 -18.65, 168.84 -16.21" stroke="#1971c2" stroke-width="1" fill="none"></path></g></g><mask></mask><g stroke-linecap="round"><g transform="translate(910.8889859430458 382.64966428887135) rotate(0 68.76523674391984 15.450342603611887)"><path d="M-0.72 -0.82 C22.17 4.66, 115.09 26.4, 138.25 31.72 M1.11 1.36 C23.72 6.62, 114.44 24.87, 137.14 30.06" stroke="#1971c2" stroke-width="1" fill="none"></path></g><g transform="translate(910.8889859430458 382.64966428887135) rotate(0 68.76523674391984 15.450342603611887)"><path d="M106.06 33.7 C120.2 32.25, 130.38 29.3, 136.78 28.91 M108.26 35.04 C116.35 32.94, 126.09 31.78, 136.78 30.68" stroke="#1971c2" stroke-width="1" fill="none"></path></g><g transform="translate(910.8889859430458 382.64966428887135) rotate(0 68.76523674391984 15.450342603611887)"><path d="M110.34 13.63 C122.66 19.75, 131.22 24.41, 136.78 28.91 M112.54 14.97 C119.24 19.33, 127.6 24.59, 136.78 30.68" stroke="#1971c2" stroke-width="1" fill="none"></path></g></g><mask></mask><g stroke-linecap="round" transform="translate(10 184.44769233133928) rotate(0 68.43100524890332 71.51220021818696)"><path d="M86.25 18 M86.25 18 C93.19 27.01, 101.12 35.58, 119.61 54 M86.25 18 C96.04 30.21, 107.49 41.37, 119.61 54 M119.61 54 C135 71.1, 135.37 72.36, 119.61 90 M119.61 54 C136.44 70.46, 137.08 69.74, 119.61 90 M119.61 90 C105.45 103.17, 92.29 117.88, 86.25 125.02 M119.61 90 C110.58 98.74, 102.11 107.92, 86.25 125.02 M86.25 125.02 C69.19 141.85, 70.38 141.16, 51.75 125.02 M86.25 125.02 C70.74 145.12, 70.17 144.56, 51.75 125.02 M51.75 125.02 C42.93 115.92, 32.31 105.27, 17.25 90 M51.75 125.02 C41.8 115.26, 34.81 107.74, 17.25 90 M17.25 90 C1.79 71.33, -1.16 73.03, 17.25 54 M17.25 90 C0.63 72.75, 1.29 74.29, 17.25 54 M17.25 54 C25.68 43.1, 38.86 33.88, 51.75 18 M17.25 54 C26.48 44.02, 35.9 34.12, 51.75 18 M51.75 18 C68.27 1.03, 68.16 -0.57, 86.25 18 M51.75 18 C68.53 -0.18, 67.45 1.53, 86.25 18" stroke="#1971c2" stroke-width="1" fill="none"></path></g><g stroke-linecap="round"><g transform="translate(152.97881540833916 249.7323903834813) rotate(0 38.397301048930416 0.7653607632262265)"><path d="M0.14 -0.66 C13.2 -0.7, 65.06 0.32, 78.03 0.69 M-1.24 1.61 C11.65 1.66, 63.8 2.45, 76.83 2.11" stroke="#1971c2" stroke-width="1" fill="none"></path></g><g transform="translate(152.97881540833916 249.7323903834813) rotate(0 38.397301048930416 0.7653607632262265)"><path d="M47.57 11.63 C55.88 8.7, 64.99 8.23, 77.14 3.06 M49.54 11.55 C59.07 8.47, 67.26 5.26, 76.56 2.54" stroke="#1971c2" stroke-width="1" fill="none"></path></g><g transform="translate(152.97881540833916 249.7323903834813) rotate(0 38.397301048930416 0.7653607632262265)"><path d="M47.51 -8.89 C56 -6.23, 65.13 -1.1, 77.14 3.06 M49.49 -8.97 C58.83 -5.15, 67.05 -1.47, 76.56 2.54" stroke="#1971c2" stroke-width="1" fill="none"></path></g></g><mask></mask><g transform="translate(254.90207483803135 218.79567805859097) rotate(0 52.29997253417969 25)"><text x="0" y="0" font-family="Virgil, Segoe UI Emoji" font-size="20px" fill="#846358" text-anchor="start" style="white-space: pre;" direction="ltr" dominant-baseline="text-before-edge">DIRECT</text><text x="0" y="25" font-family="Virgil, Segoe UI Emoji" font-size="20px" fill="#846358" text-anchor="start" style="white-space: pre;" direction="ltr" dominant-baseline="text-before-edge">EXCHANGE</text></g><g transform="translate(380.7113296736926 87.59468322667578) rotate(0 48.15806579589844 37.153451259641)"><text x="0" y="0" font-family="Virgil, Segoe UI Emoji" font-size="19.815174005141866px" fill="#6741d9" text-anchor="start" style="white-space: pre;" direction="ltr" dominant-baseline="text-before-edge">analytics </text><text x="0" y="24.768967506427334" font-family="Virgil, Segoe UI Emoji" font-size="19.815174005141866px" fill="#6741d9" text-anchor="start" style="white-space: pre;" direction="ltr" dominant-baseline="text-before-edge">route</text><text x="0" y="49.53793501285467" font-family="Virgil, Segoe UI Emoji" font-size="19.815174005141866px" fill="#6741d9" text-anchor="start" style="white-space: pre;" direction="ltr" dominant-baseline="text-before-edge"></text></g><g transform="translate(389.92322356683894 370.8272170248862) rotate(0 48.83995819091797 37.5)"><text x="0" y="0" font-family="Virgil, Segoe UI Emoji" font-size="20px" fill="#6741d9" text-anchor="start" style="white-space: pre;" direction="ltr" dominant-baseline="text-before-edge">payments </text><text x="0" y="25" font-family="Virgil, Segoe UI Emoji" font-size="20px" fill="#6741d9" text-anchor="start" style="white-space: pre;" direction="ltr" dominant-baseline="text-before-edge">route</text><text x="0" y="50" font-family="Virgil, Segoe UI Emoji" font-size="20px" fill="#6741d9" text-anchor="start" style="white-space: pre;" direction="ltr" dominant-baseline="text-before-edge"></text></g><g transform="translate(650.3023745597608 100.1756155662984) rotate(0 76.37993621826172 12.5)"><text x="0" y="0" font-family="Virgil, Segoe UI Emoji" font-size="20px" fill="#2f9e44" text-anchor="start" style="white-space: pre;" direction="ltr" dominant-baseline="text-before-edge">analytics queue</text></g><g transform="translate(654.5708868105527 351.5693494234538) rotate(0 76.59992980957031 12.5)"><text x="0" y="0" font-family="Virgil, Segoe UI Emoji" font-size="20px" fill="#2f9e44" text-anchor="start" style="white-space: pre;" direction="ltr" dominant-baseline="text-before-edge">payments queue</text></g></svg>